<?xml version="1.0" encoding="UTF-8"?>
<svg width="355px" height="204px" viewBox="0 0 355 204" version="1.1" xmlns="http://www.w3.org/2000/svg" xmlns:xlink="http://www.w3.org/1999/xlink">
    <title>Combined Shape</title>
    <g id="Page-1" stroke="none" stroke-width="1" fill="none" fill-rule="evenodd">
        <path d="M99.5,-5.47288437e-10 C106.403559,-5.47288437e-10 112,5.59644063 112,12.5 C112,12.9005525 111.98116,13.2967046 111.944317,13.6876185 C111.981961,14.7865987 112,15.8909647 112,16.9995439 C112,53.3733301 92.57984,85.2112948 63.5424297,102.710529 C95.3442697,119.231402 117.147701,152.338855 117.495326,190.571831 C117.497595,190.714344 117.5,190.856891 117.5,191 C117.5,191.079029 117.499267,191.157887 117.497806,191.236568 L117.499544,191.5 C117.227899,198.171603 111.736206,203.5 105,203.5 C98.2637935,203.5 92.7721008,198.171603 92.5098052,191.499693 L92.4995439,191.5 C92.4995439,152.610216 62.8999609,120.633784 25.000498,116.870409 L25,191.5 C25,198.403559 19.4035594,204 12.5,204 C5.59644063,204 8.45442189e-16,198.403559 0,191.5 L0,12.5 C-8.45442189e-16,5.59644063 5.59644063,-5.47287169e-10 12.5,-5.47288437e-10 C19.4035594,-5.47289705e-10 25,5.59644063 25,12.5 L25.0008468,90.8767862 C60.2255275,84.720728 87,53.9868926 87,16.9995439 C87,15.3195834 86.9447652,13.6525237 86.8360126,12.0000817 L87.0098052,12.0003068 C87.2721008,5.32839674 92.7637935,-5.47288437e-10 99.5,-5.47288437e-10 Z M154.5,101 C161.403559,101 167,106.596441 167,113.5 L167,191.5 C167,198.403559 161.403559,204 154.5,204 C147.596441,204 142,198.403559 142,191.5 L142,113.5 C142,106.699479 147.430629,101.167349 154.191773,101.003726 L154.5,101 Z M202.5,101 C203.71971,101 204.898618,101.174694 206.013068,101.500427 L206.023417,101.5 C254.781431,101.5 294.531314,139.865242 296.429087,187.903684 C296.798688,189.03527 297,190.244125 297,191.5 C297,197.851275 291.851275,203 285.5,203 C279.246437,203 274.158707,198.008478 274.003642,191.792268 L274,191.5 L273.880854,191.5 C273.880854,157.247866 248.233595,128.954417 214.999939,124.585381 L215,190.5 C215,197.403559 209.403559,203 202.5,203 C195.596441,203 190,197.403559 190,190.5 L190,113.5 C190,113.327933 190.003477,113.156678 190.010364,112.986301 C190.003394,112.825363 190,112.663078 190,112.5 C190,106.148725 195.148725,101 201.5,101 C201.662509,101 201.82423,101.003371 201.985099,101.010046 C202.155337,101.003504 202.327259,101 202.5,101 Z M344.558312,157.885194 C344.817163,158.102395 345.060711,158.331066 345.288839,158.569839 L345.324357,158.527982 L345.638903,158.796289 C355.92779,167.717885 357.192072,183.277685 348.405778,193.748783 C339.619483,204.219881 324.076531,205.676737 313.503828,197.09338 L313.184976,196.830204 L313.193851,196.818812 C313.061091,196.719915 312.930397,196.616586 312.801954,196.50881 C309.20582,193.491295 308.736756,188.129872 311.754271,184.533738 C314.771786,180.937603 320.133209,180.468539 323.729344,183.486055 C323.857786,183.593831 323.98224,183.704597 324.102687,183.818166 L324.122483,183.794476 C324.24222,183.90918 324.366529,184.020717 324.495388,184.128842 C327.668448,186.791356 332.399115,186.377476 335.061628,183.204416 C337.724142,180.031356 337.310262,175.300689 334.137202,172.638176 C334.008343,172.53005 333.876915,172.426998 333.743161,172.328998 L333.789234,172.274535 C333.514474,172.091336 333.246986,171.891195 332.988136,171.673994 C329.180464,168.478978 328.683808,162.802178 331.878824,158.994506 C335.07384,155.186834 340.750641,154.690178 344.558312,157.885194 Z M349.685927,115.397091 L349.919886,115.737959 L349.908215,115.746464 C350.008572,115.878123 350.105723,116.013473 350.199483,116.152478 C352.824569,120.044329 351.797654,125.32735 347.905803,127.952437 C344.013952,130.577524 338.73093,129.550608 336.105844,125.658757 C336.012084,125.519753 335.922983,125.378973 335.838505,125.236604 L335.812946,125.25392 C335.729464,125.110655 335.640715,124.969175 335.546651,124.82972 C333.230398,121.395734 328.568908,120.489632 325.134922,122.805885 C321.700936,125.122138 320.794834,129.783627 323.111087,133.217613 C323.205151,133.357069 323.303083,133.492355 323.404643,133.623426 L323.345343,133.663081 C323.558962,133.914917 323.760923,134.181034 323.949877,134.46117 C326.72938,138.581953 325.642058,144.175741 321.521275,146.955244 C317.400491,149.734747 311.806704,148.647425 309.0272,144.526642 C308.838246,144.246506 308.667162,143.959563 308.513687,143.667159 L308.468007,143.697604 L308.239602,143.35299 C300.808414,131.941 303.88197,116.635477 315.214124,108.991842 C326.546278,101.348208 341.888686,104.232006 349.685927,115.397091 Z" id="Combined-Shape" fill="#08B6FE"></path>
    </g>
</svg>